<?xml version="1.0" encoding="utf-8"?>
<!-- Generator: Adobe Illustrator 18.1.1, SVG Export Plug-In . SVG Version: 6.00 Build 0)  -->
<svg version="1.1" id="Layer_1" xmlns="http://www.w3.org/2000/svg" xmlns:xlink="http://www.w3.org/1999/xlink" x="0px" y="0px"
	 viewBox="0 123.3 595.3 595.3" enable-background="new 0 123.3 595.3 595.3" xml:space="preserve">
<rect y="123.3" fill="#87CFF2" width="595.3" height="595.3"/>
<g>
	<defs>
		<filter id="Adobe_OpacityMaskFilter" filterUnits="userSpaceOnUse" x="96.2" y="219.2" width="403.5" height="403.5">
			<feColorMatrix  type="matrix" values="1 0 0 0 0  0 1 0 0 0  0 0 1 0 0  0 0 0 1 0"/>
		</filter>
	</defs>
	<mask maskUnits="userSpaceOnUse" x="96.2" y="219.2" width="403.5" height="403.5" id="SVGID_1_">
		<g filter="url(#Adobe_OpacityMaskFilter)">
			<path fill="#FFFFFF" d="M298.1,210.6c-115.2,0-208.5,93.3-208.5,208.5s93.3,208.5,208.5,208.5s208.5-93.3,208.5-208.5
				S413.3,210.6,298.1,210.6z M298.1,577.2c-87.3,0-158.1-70.8-158.1-158.1S210.8,261,298.1,261s158.1,70.8,158.1,158.1
				S385.3,577.2,298.1,577.2z"/>
		</g>
	</mask>
	<g mask="url(#SVGID_1_)">
		<g>
			<path fill="#3F464D" d="M297.8,403.5c-50.7,0-92.2-41.5-92.2-92.2s41.5-92.2,92.2-92.2s92.2,41.5,92.2,92.2
				S348.8,403.5,297.8,403.5z M297.8,233c-43.2,0-78.6,35.1-78.6,78.6s35.1,78.6,78.6,78.6c43.2,0,78.6-35.1,78.6-78.6
				S341.3,233,297.8,233z"/>
		</g>
		<g>
			<path fill="#3F464D" d="M297.8,622.7c-50.7,0-92.2-41.5-92.2-92.2s41.5-92.2,92.2-92.2s92.2,41.5,92.2,92.2
				C389.9,581.2,348.8,622.7,297.8,622.7z M297.8,451.9c-43.2,0-78.6,35.1-78.6,78.6c0,43.5,35.1,78.6,78.6,78.6
				c43.2,0,78.6-35.1,78.6-78.6C376.4,487,341.3,451.9,297.8,451.9z"/>
		</g>
		<g>
			<path fill="#3F464D" d="M407.5,513.2c-50.7,0-92.2-41.5-92.2-92.2s41.5-92.2,92.2-92.2s92.2,41.5,92.2,92.2
				C499.7,471.8,458.2,513.2,407.5,513.2z M407.5,342.5c-43.2,0-78.6,35.1-78.6,78.6c0,43.2,35.1,78.6,78.6,78.6
				c43.2,0,78.6-35.1,78.6-78.6C485.8,377.6,450.7,342.5,407.5,342.5z"/>
		</g>
		<g>
			<path fill="#3F464D" d="M188.3,513.2c-50.7,0-92.2-41.5-92.2-92.2s41.5-92.2,92.2-92.2s92.2,41.5,92.2,92.2
				C280.5,471.8,239.3,513.2,188.3,513.2z M188.3,342.5c-43.2,0-78.6,35.1-78.6,78.6c0,43.2,35.1,78.6,78.6,78.6
				c43.2,0,78.6-35.1,78.6-78.6C267,377.6,231.8,342.5,188.3,342.5z"/>
		</g>
	</g>
	<g>
		<path fill="#F47E67" d="M298.1,261.5c-87.3,0-158.1,70.8-158.1,158.1s70.8,158.1,158.1,158.1s158.1-70.8,158.1-158.1
			S385.3,261.5,298.1,261.5z M298.1,487.3c-37.4,0-67.7-30.2-67.7-67.7s30.2-67.7,67.7-67.7s67.7,30.2,67.7,67.7
			S335.5,487.3,298.1,487.3z"/>
		<path fill="#3F464D" d="M298.1,586.7c-22.5,0-44.4-4.3-65.1-13.2c-19.9-8.4-37.7-20.4-53-35.7c-15.3-15.3-27.4-33.1-35.7-53
			c-8.6-20.7-13.2-42.6-13.2-65.1c0-22.5,4.3-44.4,13.2-65.1c8.4-19.9,20.4-37.7,35.7-53.3c15.3-15.3,33.1-27.4,53-35.7
			c20.7-8.6,42.6-13.2,65.1-13.2c22.5,0,44.4,4.3,65.1,13.2c19.9,8.4,37.7,20.4,53,35.7c15.3,15.3,27.4,33.1,35.7,53
			c8.6,20.7,13.2,42.6,13.2,65.1c0,22.5-4.3,44.4-13.2,65.1c-8.4,19.9-20.4,37.7-35.7,53c-15.3,15.3-33.1,27.4-53,35.7
			C342.7,582.1,320.8,586.7,298.1,586.7z M298.1,270.5c-39.7,0-77.2,15.6-105.4,43.8s-43.8,65.7-43.8,105.4s15.6,77.2,43.8,105.4
			c28.2,28.2,65.7,43.8,105.4,43.8s77.2-15.6,105.4-43.8c28.2-28.2,43.8-65.7,43.8-105.4s-15.6-77.2-43.8-105.4
			C375.3,286,338.1,270.5,298.1,270.5z M298.1,496.3c-42.3,0-76.9-34.6-76.9-76.9s34.6-76.6,76.9-76.6s76.9,34.6,76.9,76.9
			S340.4,496.3,298.1,496.3z M298.1,360.9c-32.3,0-58.8,26.2-58.8,58.8c0,32.3,26.2,58.8,58.8,58.8c32.3,0,58.8-26.2,58.8-58.8
			S330.6,360.9,298.1,360.9z"/>
	</g>
	<defs>
		<filter id="Adobe_OpacityMaskFilter_1_" filterUnits="userSpaceOnUse" x="123.8" y="245.4" width="348.8" height="348.8">
			<feColorMatrix  type="matrix" values="1 0 0 0 0  0 1 0 0 0  0 0 1 0 0  0 0 0 1 0"/>
		</filter>
	</defs>
	<mask maskUnits="userSpaceOnUse" x="123.8" y="245.4" width="348.8" height="348.8" id="SVGID_2_">
		<g filter="url(#Adobe_OpacityMaskFilter_1_)">
			<path fill="#FFFFFF" d="M298.1,270.5c-39.7,0-77.2,15.6-105.4,43.8s-43.8,65.7-43.8,105.4s15.6,77.2,43.8,105.4
				c28.2,28.2,65.7,43.8,105.4,43.8s77.2-15.6,105.4-43.8c28.2-28.2,43.8-65.7,43.8-105.4s-15.6-77.2-43.8-105.4
				C375.3,286,338.1,270.5,298.1,270.5z M298.1,496.3c-42.3,0-76.9-34.6-76.9-76.9s34.6-76.6,76.9-76.6s76.9,34.6,76.9,76.9
				S340.4,496.3,298.1,496.3z"/>
		</g>
	</mask>
	<g mask="url(#SVGID_2_)">
		<polygon fill="#FFF6E6" points="246.8,594.2 298.1,419.6 349.6,594.2 		"/>
		<polygon fill="#FFF6E6" points="246.8,245.4 298.1,419.9 349.6,245.4 		"/>
		<polygon fill="#FFF6E6" points="123.8,368.4 298.4,419.6 123.8,471.2 		"/>
		<polygon fill="#FFF6E6" points="472.6,368.4 297.8,419.6 472.6,471.2 		"/>
	</g>
</g>
</svg>
